<svg width="164" height="42" viewBox="0 0 164 42" fill="none" xmlns="http://www.w3.org/2000/svg">
<path d="M153.872 11.4995C150.812 11.4995 148.477 12.6232 146.828 14.8705L146.828 3.99414L142.482 3.99414L142.482 32.0859L146.828 32.0859L146.828 29.1969C148.477 31.4932 150.805 32.609 153.872 32.609C156.648 32.609 158.982 31.6054 160.953 29.5588C162.925 27.5122 163.892 24.9835 163.892 22.0534C163.892 19.0838 162.927 16.5963 160.953 14.5497C158.98 12.503 156.648 11.4995 153.872 11.4995V11.4995ZM148.64 26.6714C147.432 25.4276 146.834 23.9025 146.834 22.0566C146.834 20.2107 147.438 18.6856 148.64 17.4813C149.847 16.2375 151.375 15.6354 153.187 15.6354C154.999 15.6354 156.528 16.2375 157.734 17.4813C158.938 18.6856 159.54 20.2133 159.54 22.0645C159.54 23.9104 158.938 25.4355 157.734 26.6793C156.528 27.8835 154.998 28.4857 153.187 28.4857C151.376 28.4857 149.847 27.8836 148.64 26.6793" fill="white"/>
<path d="M116.606 3.99414L112.259 3.99414L112.259 32.0859L116.606 32.0859L116.606 3.99414Z" fill="white"/>
<path d="M138.7 32.0863L138.7 12.0151L134.353 12.0151L134.353 23.6122C134.353 26.4016 132.36 28.4687 129.543 28.4687C126.503 28.4687 124.735 26.6687 124.735 23.6738L124.735 12.0215L120.388 12.0215L120.388 24.4308C120.388 29.5403 123.402 32.6094 128.596 32.6094C130.981 32.6094 132.948 31.7749 134.36 29.8168L134.36 32.0863L138.7 32.0863Z" fill="white"/>
<path d="M100.488 11.4995C97.5491 11.4995 95.0145 12.5031 92.9625 14.5497C90.9105 16.5963 89.8632 19.0839 89.8632 22.0535C89.8632 25.023 90.9089 27.5122 92.9625 29.5588C95.0161 31.6054 97.5491 32.609 100.488 32.609C103.38 32.609 105.803 31.6054 107.796 29.5588C108.474 28.8678 109.055 28.0935 109.523 27.2562L105.99 25.219C105.706 25.7286 105.353 26.1994 104.939 26.6192C104.38 27.2172 103.693 27.6923 102.926 28.0124C102.159 28.3325 101.33 28.4901 100.494 28.4746C96.8678 28.4746 94.2167 25.6773 94.2167 22.0535C94.2167 18.4296 96.8678 15.6323 100.494 15.6323C101.33 15.6171 102.16 15.775 102.927 16.0954C103.693 16.4158 104.38 16.8911 104.939 17.4892C105.353 17.9089 105.706 18.3798 105.99 18.8895L109.529 16.8523C109.06 16.0141 108.477 15.2397 107.796 14.5497C105.803 12.4952 103.38 11.4995 100.488 11.4995" fill="white"/>
<path d="M86.887 3.99414L82.5401 3.99414L82.5401 32.0859L86.887 32.0859L86.887 3.99414Z" fill="white"/>
<path d="M67.3687 11.4995C70.427 11.4995 72.7613 12.6232 74.4111 14.8705L74.4111 12.0258L78.758 12.0258L78.758 32.0969L74.4111 32.0969L74.4111 29.1969C72.7613 31.4853 70.427 32.609 67.3687 32.609C64.5912 32.609 62.2585 31.6054 60.2869 29.5588C58.3154 27.5122 57.3485 24.9835 57.3485 22.0535C57.3485 19.0839 58.3138 16.5963 60.2869 14.5497C62.2601 12.5031 64.5912 11.4995 67.3687 11.4995ZM72.6004 26.6714C73.8086 25.4276 74.4061 23.9025 74.4061 22.0566C74.4061 20.2107 73.802 18.6856 72.6004 17.4813C71.3938 16.2376 69.8639 15.6354 68.0532 15.6354C66.2426 15.6354 64.7126 16.2376 63.5061 17.4813C62.3022 18.6856 61.7003 20.2133 61.7003 22.0645C61.7003 23.9104 62.3028 25.4355 63.5061 26.6793C64.7126 27.8836 66.2426 28.4857 68.0532 28.4857C69.8639 28.4857 71.3939 27.8836 72.6004 26.6793" fill="white"/>
<path d="M32.2833 11.4995C29.3465 11.4995 26.8119 12.5031 24.7583 14.5497C22.7047 16.5963 21.659 19.0839 21.659 22.0535C21.659 25.023 22.7063 27.5122 24.7583 29.5588C26.8103 31.6054 29.3547 32.609 32.2833 32.609C35.2119 32.609 37.7563 31.6054 39.8083 29.5588C41.8603 27.5122 42.9076 25.023 42.9076 22.0535C42.9076 19.0839 41.8619 16.5963 39.8083 14.5497C37.7547 12.5031 35.2217 11.4995 32.2833 11.4995ZM32.2833 28.4746C28.6587 28.4746 26.0059 25.6773 26.0059 22.0535C26.0059 18.4296 28.6587 15.6339 32.2833 15.6339C35.9079 15.6339 38.5623 18.4312 38.5623 22.0535C38.5623 25.6757 35.9095 28.4746 32.2833 28.4746Z" fill="white"/>
<path d="M50.2306 32.0879L50.2306 21.8026C50.2306 18.3557 51.8147 15.8445 56.206 15.8824L56.206 11.5474C53.6648 11.7844 51.6834 12.8923 50.2306 14.8662L50.2306 12.0215L45.8837 12.0215L45.8837 32.0926L50.2306 32.0879Z" fill="white"/>
<path d="M10.7326 11.4995C7.79579 11.4995 5.25955 12.5031 3.20758 14.5497C1.1556 16.5963 0.108278 19.0839 0.108278 22.0535C0.108279 25.023 1.15561 27.5122 3.20758 29.5588C5.25955 31.6054 7.804 32.609 10.7326 32.609C13.625 32.609 16.048 31.6054 18.0425 29.5588C18.7204 28.8677 19.3006 28.0935 19.7678 27.2562L16.2302 25.219C15.9454 25.7281 15.5921 26.1989 15.1796 26.6192C14.6196 27.217 13.9327 27.692 13.1655 28.0121C12.3983 28.3322 11.5686 28.49 10.7326 28.4746C7.10633 28.4746 4.45518 25.6773 4.45518 22.0535C4.45518 18.4296 7.10796 15.6339 10.7326 15.6339C11.5686 15.6185 12.3983 15.7763 13.1655 16.0964C13.9327 16.4165 14.6196 16.8915 15.1796 17.4892C15.5926 17.9089 15.9454 18.3798 16.2286 18.8895L19.7678 16.8523C19.3014 16.0145 18.7212 15.2402 18.0425 14.5497C16.048 12.4952 13.625 11.4995 10.7326 11.4995" fill="white"/>
</svg>
