<svg width="120" height="121" viewBox="0 0 120 121" fill="none" xmlns="http://www.w3.org/2000/svg">
<rect y="0.997559" width="120" height="120" rx="60" fill="#F8F7FC"/>
<path d="M50.6667 67.9976C51.4445 69.5532 54.4 72.6643 60 72.6643C65.6 72.6643 68.5556 69.5532 69.3334 67.9976M51.3956 54.7267H52.2706M51.3956 55.6017H52.2706M67.7289 54.7267H68.6039M67.7289 55.6017H68.6039M83.3334 60.9976C83.3334 73.8843 72.8867 84.331 60 84.331C47.1134 84.331 36.6667 73.8843 36.6667 60.9976C36.6667 48.111 47.1134 37.6643 60 37.6643C72.8867 37.6643 83.3334 48.111 83.3334 60.9976ZM53 55.1643C53 55.8086 52.4777 56.331 51.8334 56.331C51.189 56.331 50.6667 55.8086 50.6667 55.1643C50.6667 54.52 51.189 53.9976 51.8334 53.9976C52.4777 53.9976 53 54.52 53 55.1643ZM69.3334 55.1643C69.3334 55.8086 68.811 56.331 68.1667 56.331C67.5224 56.331 67 55.8086 67 55.1643C67 54.52 67.5224 53.9976 68.1667 53.9976C68.811 53.9976 69.3334 54.52 69.3334 55.1643Z" stroke="#6D5FC8" stroke-width="3.33333" stroke-linecap="round"/>
</svg>
