<svg width="120" height="121" viewBox="0 0 120 121" fill="none" xmlns="http://www.w3.org/2000/svg">
<rect y="0.997559" width="120" height="120" rx="60" fill="#F5FCEE"/>
<path d="M55.3334 84.3309C65.2508 84.3309 73.3619 76.5969 73.9642 66.8311C74.0039 66.188 73.4777 65.6642 72.8334 65.6642H56.5001C55.8557 65.6642 55.3334 65.1419 55.3334 64.4976V48.1642C55.3334 47.5199 54.8096 46.9938 54.1665 47.0334C44.4008 47.6358 36.6667 55.7468 36.6667 65.6642C36.6667 75.9735 45.0241 84.3309 55.3334 84.3309Z" stroke="#86D73A" stroke-width="3.33333"/>
<path d="M83.2975 55.164C82.719 45.7842 75.2135 38.2786 65.8336 37.7001C65.1905 37.6604 64.6667 38.1866 64.6667 38.8309V55.1642C64.6667 55.8086 65.1891 56.3309 65.8334 56.3309L82.1667 56.3309C82.8111 56.3309 83.3372 55.8071 83.2975 55.164Z" stroke="#86D73A" stroke-width="3.33333"/>
</svg>
