<svg width="120" height="121" viewBox="0 0 120 121" fill="none" xmlns="http://www.w3.org/2000/svg">
<rect y="0.997559" width="120" height="120" rx="60" fill="#FFF5F5"/>
<path d="M65.3954 66.3932H66.2704M65.3954 67.2682H66.2704M65.3954 80.3932H66.2704M65.3954 81.2682H66.2704M72.3954 73.3932H73.2704M72.3954 74.2682H73.2704M79.3954 66.3932H80.2704M79.3954 67.2682H80.2704M79.3954 80.3932H80.2704M79.3954 81.2682H80.2704M43.6665 56.3308H50.6665C53.2439 56.3308 55.3332 54.2414 55.3332 51.6641V44.6641C55.3332 42.0868 53.2439 39.9974 50.6665 39.9974H43.6665C41.0892 39.9974 38.9999 42.0868 38.9999 44.6641V51.6641C38.9999 54.2414 41.0892 56.3308 43.6665 56.3308ZM43.6665 81.9974H50.6665C53.2439 81.9974 55.3332 79.9081 55.3332 77.3308V70.3308C55.3332 67.7534 53.2439 65.6641 50.6665 65.6641H43.6665C41.0892 65.6641 38.9999 67.7534 38.9999 70.3308V77.3308C38.9999 79.9081 41.0892 81.9974 43.6665 81.9974ZM69.3332 56.3308H76.3332C78.9105 56.3308 80.9999 54.2414 80.9999 51.6641V44.6641C80.9999 42.0868 78.9105 39.9974 76.3332 39.9974H69.3332C66.7559 39.9974 64.6665 42.0868 64.6665 44.6641V51.6641C64.6665 54.2414 66.7559 56.3308 69.3332 56.3308ZM66.9999 66.8308C66.9999 67.4751 66.4775 67.9974 65.8332 67.9974C65.1889 67.9974 64.6665 67.4751 64.6665 66.8308C64.6665 66.1864 65.1889 65.6641 65.8332 65.6641C66.4775 65.6641 66.9999 66.1864 66.9999 66.8308ZM66.9999 80.8308C66.9999 81.4751 66.4775 81.9974 65.8332 81.9974C65.1889 81.9974 64.6665 81.4751 64.6665 80.8308C64.6665 80.1864 65.1889 79.6641 65.8332 79.6641C66.4775 79.6641 66.9999 80.1864 66.9999 80.8308ZM73.9999 73.8308C73.9999 74.4751 73.4775 74.9974 72.8332 74.9974C72.1889 74.9974 71.6665 74.4751 71.6665 73.8308C71.6665 73.1864 72.1889 72.6641 72.8332 72.6641C73.4775 72.6641 73.9999 73.1864 73.9999 73.8308ZM80.9999 66.8308C80.9999 67.4751 80.4775 67.9974 79.8332 67.9974C79.1889 67.9974 78.6665 67.4751 78.6665 66.8308C78.6665 66.1864 79.1889 65.6641 79.8332 65.6641C80.4775 65.6641 80.9999 66.1864 80.9999 66.8308ZM80.9999 80.8308C80.9999 81.4751 80.4775 81.9974 79.8332 81.9974C79.1889 81.9974 78.6665 81.4751 78.6665 80.8308C78.6665 80.1864 79.1889 79.6641 79.8332 79.6641C80.4775 79.6641 80.9999 80.1864 80.9999 80.8308Z" stroke="#FC6368" stroke-width="3.33333" stroke-linecap="round"/>
</svg>
