<svg width="120" height="121" viewBox="0 0 120 121" fill="none" xmlns="http://www.w3.org/2000/svg">
<rect y="0.997559" width="120" height="120" rx="60" fill="#FFFDEB"/>
<path d="M75.8169 47.1758L74.2563 47.761L75.8169 47.1758ZM79.3119 56.4957L77.7513 57.0809L79.3119 56.4957ZM77.6003 64.3972L76.4218 63.2187L77.6003 64.3972ZM65.2797 76.7178L66.4583 77.8963L65.2797 76.7178ZM54.7203 76.7177L53.5418 77.8963L54.7203 76.7177ZM42.3997 64.3972L41.2212 65.5757H41.2212L42.3997 64.3972ZM40.6882 56.4957L42.2487 57.0809V57.0809L40.6882 56.4957ZM44.1832 47.1758L45.7437 47.761L44.1832 47.1758ZM40.2068 61.8192L38.7004 62.5324L38.7004 62.5324L40.2068 61.8192ZM39.7586 59.75L38.0921 59.7242L39.7586 59.75ZM61.4421 79.8361L61.9571 81.4212H61.9571L61.4421 79.8361ZM58.5579 79.8361L58.0429 81.4212H58.0429L58.5579 79.8361ZM80.2415 59.75L81.908 59.7242V59.7242L80.2415 59.75ZM79.7933 61.8192L81.2997 62.5324L81.2997 62.5324L79.7933 61.8192ZM72.4257 42.6359L71.833 44.1936V44.1936L72.4257 42.6359ZM74.2671 43.912L73.0167 45.014V45.014L74.2671 43.912ZM47.5743 42.6359L46.9816 41.0782V41.0782L47.5743 42.6359ZM45.7329 43.912L44.4825 42.8101L44.4825 42.8101L45.7329 43.912ZM67 60.3308C67.9205 60.3308 68.6667 59.5846 68.6667 58.6641C68.6667 57.7437 67.9205 56.9975 67 56.9975V60.3308ZM53 56.9975C52.0796 56.9975 51.3334 57.7437 51.3334 58.6641C51.3334 59.5846 52.0796 60.3308 53 60.3308V56.9975ZM51.1744 43.9975H68.8256V40.6641H51.1744V43.9975ZM74.2563 47.761L77.7513 57.0809L80.8724 55.9105L77.3774 46.5906L74.2563 47.761ZM76.4218 63.2187L64.1012 75.5392L66.4583 77.8963L78.7788 65.5757L76.4218 63.2187ZM55.8988 75.5392L43.5782 63.2187L41.2212 65.5757L53.5418 77.8963L55.8988 75.5392ZM42.2487 57.0809L45.7437 47.761L42.6226 46.5905L39.1276 55.9105L42.2487 57.0809ZM43.5782 63.2187C42.2578 61.8982 41.906 61.5135 41.7132 61.1061L38.7004 62.5324C39.1997 63.5871 40.0792 64.4337 41.2212 65.5757L43.5782 63.2187ZM39.1276 55.9105C38.5606 57.4227 38.1102 58.5573 38.0921 59.7242L41.425 59.7759C41.432 59.3252 41.593 58.8294 42.2487 57.0809L39.1276 55.9105ZM41.7132 61.1061C41.5165 60.6906 41.4179 60.2355 41.425 59.7759L38.0921 59.7242C38.077 60.6945 38.2851 61.6553 38.7004 62.5324L41.7132 61.1061ZM64.1012 75.5392C63.1578 76.4827 62.5201 77.1185 61.9888 77.5695C61.4725 78.0079 61.1673 78.173 60.9271 78.251L61.9571 81.4212C62.7825 81.153 63.4721 80.6829 64.1461 80.1107C64.8053 79.5511 65.5537 78.8009 66.4583 77.8963L64.1012 75.5392ZM53.5418 77.8963C54.4464 78.8009 55.1948 79.5511 55.8539 80.1107C56.528 80.6829 57.2176 81.153 58.0429 81.4212L59.073 78.251C58.8328 78.173 58.5276 78.0079 58.0112 77.5695C57.4799 77.1185 56.8423 76.4827 55.8988 75.5392L53.5418 77.8963ZM60.9271 78.251C60.3245 78.4468 59.6755 78.4468 59.073 78.251L58.0429 81.4212C59.3149 81.8345 60.6851 81.8345 61.9571 81.4212L60.9271 78.251ZM77.7513 57.0809C78.407 58.8294 78.568 59.3252 78.575 59.7759L81.908 59.7242C81.8898 58.5573 81.4395 57.4227 80.8724 55.9105L77.7513 57.0809ZM78.7788 65.5757C79.9208 64.4337 80.8003 63.5871 81.2997 62.5324L78.2869 61.1061C78.094 61.5135 77.7423 61.8982 76.4218 63.2187L78.7788 65.5757ZM78.575 59.7759C78.5822 60.2355 78.4836 60.6906 78.2869 61.1061L81.2997 62.5324C81.7149 61.6553 81.923 60.6945 81.908 59.7242L78.575 59.7759ZM68.8256 43.9975C70.8276 43.9975 71.3866 44.0238 71.833 44.1936L73.0185 41.0782C71.8612 40.6379 70.5547 40.6641 68.8256 40.6641V43.9975ZM77.3774 46.5906C76.7703 44.9715 76.3362 43.739 75.5175 42.8101L73.0167 45.014C73.3325 45.3723 73.5534 45.8865 74.2563 47.761L77.3774 46.5906ZM71.833 44.1936C72.2883 44.3669 72.6946 44.6485 73.0167 45.014L75.5175 42.8101C74.8375 42.0384 73.9797 41.444 73.0185 41.0782L71.833 44.1936ZM51.1744 40.6641C49.4453 40.6641 48.1388 40.6379 46.9816 41.0782L48.1671 44.1936C48.6134 44.0238 49.1725 43.9975 51.1744 43.9975V40.6641ZM45.7437 47.761C46.4466 45.8865 46.6676 45.3723 46.9833 45.014L44.4825 42.8101C43.6639 43.739 43.2298 44.9715 42.6226 46.5905L45.7437 47.761ZM46.9816 41.0782C46.0203 41.444 45.1626 42.0384 44.4825 42.8101L46.9833 45.014C47.3054 44.6485 47.7117 44.3669 48.1671 44.1936L46.9816 41.0782ZM67 56.9975H53V60.3308H67V56.9975Z" fill="#FEA000"/>
</svg>
